<svg
   xmlns="http://www.w3.org/2000/svg" version="1.1"
   width="20" height="20">
  <g fill="#000000">
    <rect x="10" y="3" width="4" height="2"/>
    <rect x="0" y="9" width="4" height="2"/>
    <rect x="15" y="9" width="4" height="2"/>
    <rect x="5" y="15" width="4" height="2"/>
  </g>
  <g fill="#800000">
    <rect x="0" y="0" width="4" height="2"/>
    <rect x="10" y="0" width="4" height="2"/>
    <rect x="0" y="3" width="4" height="2"/>
    <rect x="15" y="3" width="4" height="2"/>
    <rect x="10" y="6" width="4" height="2"/>
    <rect x="5" y="9" width="4" height="2"/>
    <rect x="10" y="12" width="4" height="2"/>
    <rect x="15" y="15" width="4" height="2"/>
    <rect x="0" y="15" width="4" height="2"/>
    <rect x="5" y="18" width="4" height="2"/>
  </g>
  <g fill="#a88080">
    <rect x="5" y="6" width="4" height="2"/>
    <rect x="15" y="6" width="4" height="2"/>
    <rect x="5" y="12" width="4" height="2"/>
    <rect x="10" y="15" width="4" height="2"/>
    <rect x="0" y="18" width="4" height="2"/>
  </g>
  <g fill="#d8c8c8">
    <rect x="15" y="0" width="4" height="2"/>
    <rect x="0" y="6" width="4" height="2"/>
    <rect x="10" y="9" width="4" height="2"/>
    <rect x="15" y="18" width="4" height="2"/>
  </g>
</svg>
