<svg xmlns="http://www.w3.org/2000/svg" version="1.1" width="20" height="20">
  <defs>
    <linearGradient id="fade" x1="3" y1="3" x2="17" y2="17">
      <stop offset="0" stop-color="#800000" stop-opacity="0.66"/>
      <stop offset="1" stop-color="#800000" stop-opacity="0.33"/>
    </linearGradient>
  </defs>
  <path
    fill="url(#fade)" stroke="#800000" stroke-width="1" stroke-linejoin="round"
    d="M 9.08,0.5 C 8.758,0.5 8.496,0.76 8.496,1.082 V 2.447 C 8.495,2.672 8.344,2.869 8.127,2.928 7.49,3.098 6.897,3.352 6.326,3.682 6.129,3.795 5.881,3.761 5.721,3.6 L 4.754,2.633 C 4.53,2.409 4.159,2.414 3.941,2.625 3.481,3.077 3.019,3.546 2.629,3.939 2.382,4.187 2.382,4.508 2.635,4.758 L 3.596,5.719 C 3.757,5.879 3.789,6.127 3.676,6.324 3.346,6.895 3.1,7.496 2.93,8.133 2.87,8.352 2.671,8.504 2.443,8.502 H 1.078 c -0.322,0 -0.576,0.253 -0.576,0.574 v 1.846 c 0,0.322 0.254,0.584 0.576,0.584 h 1.365 c 0.225,0.001 0.422,0.152 0.48,0.369 0.171,0.637 0.421,1.23 0.752,1.801 0.114,0.197 0.081,0.446 -0.08,0.605 l -0.967,0.967 c -0.241,0.241 -0.241,0.579 0,0.82 L 3.934,17.375 c 0.224,0.224 0.595,0.211 0.812,0 l 0.008,-0.008 0.967,-0.961 c 0.159,-0.158 0.403,-0.19 0.598,-0.08 0.571,0.33 1.172,0.576 1.809,0.746 0.22,0.06 0.371,0.259 0.369,0.486 v 1.365 c 0,0.322 0.262,0.576 0.584,0.576 h 1.846 c 0.322,0 0.576,-0.255 0.576,-0.576 v -1.365 c 0.001,-0.225 0.15,-0.422 0.367,-0.48 0.637,-0.17 1.238,-0.422 1.809,-0.752 0.197,-0.114 0.446,-0.081 0.605,0.08 l 0.969,0.969 c 0.224,0.224 0.593,0.211 0.811,0 l 1.307,-1.309 c 0.241,-0.241 0.241,-0.577 0,-0.818 L 16.402,14.281 c -0.158,-0.159 -0.19,-0.403 -0.08,-0.598 0.33,-0.571 0.582,-1.172 0.752,-1.809 0.059,-0.217 0.256,-0.368 0.48,-0.369 h 1.365 c 0.322,0 0.584,-0.262 0.584,-0.584 V 9.076 C 19.504,8.754 19.242,8.5 18.92,8.5 H 17.555 C 17.33,8.499 17.133,8.35 17.074,8.133 16.904,7.496 16.652,6.895 16.322,6.324 16.209,6.127 16.241,5.879 16.402,5.719 L 17.369,4.75 c 0.241,-0.241 0.241,-0.569 0,-0.811 L 16.062,2.633 C 15.839,2.409 15.467,2.414 15.25,2.625 c 0,0.004 0,0.005 0,0.008 H 15.244 L 14.283,3.6 C 14.123,3.761 13.875,3.793 13.678,3.68 13.107,3.35 12.506,3.098 11.869,2.928 11.652,2.869 11.503,2.672 11.502,2.447 V 1.082 C 11.502,0.76 11.247,0.5 10.926,0.5 Z M 10,5.5 c 2.485,0 4.5,2.015 4.5,4.5 0,2.485 -2.015,4.5 -4.5,4.5 C 7.515,14.5 5.5,12.485 5.5,10 5.5,7.515 7.515,5.5 10,5.5 Z"/>
</svg>
