<svg
   xmlns="http://www.w3.org/2000/svg" version="1.1"
   width="20" height="20">
  <defs>
    <linearGradient id="fade" x2="1">
      <stop offset="0" stop-color="#800000" stop-opacity="0.5"/>
      <stop offset="1" stop-color="#800000" stop-opacity="0"/>
    </linearGradient>
  </defs>
  <g fill="url(#fade)" stroke="none">
    <path d="m 0.8,10.5 2.2,0 0,4.2 -2.2,2.1 z"/>
    <path d="m 0.7,16.6 5.8,-4.6 0,5.5 7,-5.5 0,5.5 7,-5.5 0,9 -20,0 z"/>
  </g>
  <g fill="none" stroke="#800000" stroke-width="1">
    <path d="M 1.1022407,8.6556147 C 3.4935741,7.8060624 3.5877984,7.3109915 2.8642754,5.309846 2.1407529,3.3087009 3.0794978,2.9989226 4.7731476,2.3731211"/>
    <path d="M 5.1353033,6.7343801 C 7.526636,5.8848274 7.6208606,5.3897565 6.8973379,3.3886112 6.1738152,1.3874656 7.1125601,1.0776876 8.8062094,0.45188594"/>
    <path d="M 5.6050741,4.1423565 8.292282,3.0294059"/>
    <path d="M 3,10.5 0.5,10.5 0.5,21"/>
    <path d="m 0.7,16.6 5.8,-4.6 0,5.5 7,-5.5 0,5.5 7,-5.5"/>
  </g>
</svg>
