<svg xmlns="http://www.w3.org/2000/svg" viewBox="0 0 391.08 72.28"><defs><style>.a{fill:#586efe;}</style></defs><title>boxingbeetle_logo</title><path class="a" d="M35.76,59.91l-6.49-3.74a4.12,4.12,0,0,1-2.3-3,7.82,7.82,0,0,1,1.31-4.59l-3-1.73a7.83,7.83,0,0,1-3.21,3.38,4.14,4.14,0,0,1-3.92-.48L11.74,46a7.19,7.19,0,0,0-6.31-.75Q2.37,46.42,0,50.43l3,1.71a6.75,6.75,0,0,1,3.09-3,4.35,4.35,0,0,1,3.85.58l6.3,3.63a6.09,6.09,0,0,0,4.36,1,7.07,7.07,0,0,0,3.75-2.58l.25.15q-1.9,5.2,2.65,7.84l6.25,3.61q4.09,2.36,1.44,7.25l2.95,1.7a10.82,10.82,0,0,0,1.7-7.2A7.2,7.2,0,0,0,35.76,59.91Z"/><path class="a" d="M64,20.16q-2.9,4.74-7,2.38l-6.25-3.61q-4.56-2.63-8.11,1.62l-.25-.15a7.07,7.07,0,0,0,.36-4.54,6.09,6.09,0,0,0-3-3.3l-6.3-3.63a4.35,4.35,0,0,1-2.43-3,6.75,6.75,0,0,1,1.05-4.17L29.11,0q-2.28,4.05-1.72,7.27a7.19,7.19,0,0,0,3.8,5.09l6.42,3.71A4.14,4.14,0,0,1,40,19.22a7.8,7.8,0,0,1-1.3,4.43A7.8,7.8,0,0,1,35.5,27a4.14,4.14,0,0,1-3.92-.48l-6.42-3.71a7.19,7.19,0,0,0-6.31-.75q-3.07,1.13-5.43,5.13l3,1.71a6.75,6.75,0,0,1,3.09-3,4.35,4.35,0,0,1,3.85.58l6.3,3.63a6.09,6.09,0,0,0,4.36,1,7.07,7.07,0,0,0,3.75-2.58l.25.15q-1.9,5.2,2.65,7.84l6.25,3.61q4.09,2.36,1.44,7.25l2.95,1.7a10.82,10.82,0,0,0,1.7-7.2,7.2,7.2,0,0,0-3.8-5.17l-6.49-3.74a4.12,4.12,0,0,1-2.3-3,7.8,7.8,0,0,1,1.29-4.56A7.78,7.78,0,0,1,45,22a4.12,4.12,0,0,1,3.74.49l6.49,3.74a7.2,7.2,0,0,0,6.38.7A10.82,10.82,0,0,0,67,21.86Z"/><path class="a" d="M42.51,48.21,36,44.47a4.12,4.12,0,0,1-2.3-3A7.82,7.82,0,0,1,35,36.88l-3-1.73a7.83,7.83,0,0,1-3.21,3.38,4.14,4.14,0,0,1-3.92-.48L18.5,34.35a7.18,7.18,0,0,0-6.31-.75q-3.07,1.13-5.43,5.13l3,1.71a6.75,6.75,0,0,1,3.09-3,4.35,4.35,0,0,1,3.85.58l6.3,3.63a6.09,6.09,0,0,0,4.36,1A7.07,7.07,0,0,0,31.06,40l.25.15Q29.41,45.4,34,48l6.25,3.61q4.09,2.36,1.44,7.25l2.95,1.7a10.82,10.82,0,0,0,1.7-7.2A7.2,7.2,0,0,0,42.51,48.21Z"/><path d="M84.49,12.82h2.87l8.16,0c4.78,0,7.61,2.72,7.61,6.18,0,2.76-1.25,5.11-6,6.54,4.19.37,7.46,2.46,7.46,6.88,0,3.53-2.79,6.84-8.75,6.84H84.49Zm5.15,1.88V24.77c4,0,8-.22,8-4.89,0-2-.77-3.79-2.21-4.48s-3.09-.7-5.37-.7Zm0,11.95v10.7h3.46c3.13-.07,6-1.62,6-5.15s-2.76-5.55-7.57-5.55Z"/><path d="M134.17,26c0,8.57-5.15,13.9-13.24,14-8.05-.11-13.24-5.4-13.24-14,0-8.31,5.29-14,13.24-14C129.32,12,134.13,18.15,134.17,26Zm-13.24-11.8c-5.44,0-7.46,5.88-7.46,11.84s2,11.84,7.46,11.84S128.4,32,128.4,26.06,126.38,14.25,120.93,14.22Z"/><path d="M146.38,28.34l-8.05,10.88h-2.9l9.78-12.65L136,12.78h5.81l6.73,10.08,7.13-10h2.57l-8.57,11.8,9.74,14.6h-5.81Z"/><path d="M164.45,12.82h5.15v26.4h-5.15Z"/><path d="M179.52,20.47V39.22h-2.46V12.78h2.46v0h.29l16.11,16.4V12.82h2.46v27Z"/><path d="M216.44,39.88c-8.05,0-12.76-5.62-12.76-13.05,0-9.27,5.66-14.6,14.16-14.6a9.39,9.39,0,0,1,8.13,4v5c-1.18-2.94-5.15-5.85-8.16-5.81-5.59.07-8.35,3.86-8.35,10.19s1.84,11,7.61,10.66c3.31-.15,4.38-1.62,4.63-2.83l.07-5L226,25.21l-.07,9.08C224.94,37.57,220.19,39.88,216.44,39.88Z"/><path d="M247.5,12.82h2.87l8.16,0c4.78,0,7.61,2.72,7.61,6.18,0,2.76-1.25,5.11-6,6.54,4.19.37,7.46,2.46,7.46,6.88,0,3.53-2.79,6.84-8.75,6.84H247.5Zm5.15,1.88V24.77c4,0,8-.22,8-4.89,0-2-.77-3.79-2.21-4.48s-3.09-.7-5.37-.7Zm0,11.95v10.7h3.46c3.13-.07,6-1.62,6-5.15s-2.76-5.55-7.57-5.55Z"/><path d="M292.22,39.22H273.07V12.82h18.64v2.1H278.21v9.71h8.2v2.24h-8.2V36.94h14Z"/><path d="M316.4,39.22H297.24V12.82h18.64v2.1H302.39v9.71h8.2v2.24h-8.2V36.94h14Z"/><path d="M333.71,14.84V39.22h-5.15V14.84H319v-2.1h24.38v2.1Z"/><path d="M347.49,12.89h5.15v24h14.08v2.28H347.49Z"/><path d="M391.08,39.22H371.93V12.82h18.64v2.1H377.08v9.71h8.2v2.24h-8.2V36.94h14Z"/><path d="M87.6,60.14H86.49V54.29h-2v-1H89.6v1h-2Z"/><path d="M96.89,56.73a3.73,3.73,0,0,1-.83,2.58,3.49,3.49,0,0,1-4.72,0,3.75,3.75,0,0,1-.83-2.6,3.69,3.69,0,0,1,.83-2.59,3.06,3.06,0,0,1,2.37-.9,3,3,0,0,1,2.35.92A3.72,3.72,0,0,1,96.89,56.73Zm-5.19,0a3.05,3.05,0,0,0,.51,1.9,2.07,2.07,0,0,0,3,0,3.87,3.87,0,0,0,0-3.81,1.77,1.77,0,0,0-1.49-.65,1.81,1.81,0,0,0-1.51.65A3,3,0,0,0,91.7,56.73Z"/><path d="M104.68,56.73a3.73,3.73,0,0,1-.83,2.58,3.49,3.49,0,0,1-4.72,0,3.75,3.75,0,0,1-.83-2.6,3.69,3.69,0,0,1,.83-2.59,3.06,3.06,0,0,1,2.37-.9,3,3,0,0,1,2.35.92A3.72,3.72,0,0,1,104.68,56.73Zm-5.19,0a3.05,3.05,0,0,0,.51,1.9,2.07,2.07,0,0,0,3,0,3.87,3.87,0,0,0,0-3.81,1.77,1.77,0,0,0-1.49-.65,1.81,1.81,0,0,0-1.51.65A3,3,0,0,0,99.49,56.73Z"/><path d="M106.41,60.14v-6.8h1.11v5.85h2.88v1Z"/><path d="M114.64,54.19a1.83,1.83,0,0,0-1.51.68,3.57,3.57,0,0,0,0,3.77,1.86,1.86,0,0,0,1.53.64,4,4,0,0,0,.84-.09q.4-.09.84-.22v1a5.1,5.1,0,0,1-1.81.3,2.9,2.9,0,0,1-2.3-.91,3.79,3.79,0,0,1-.8-2.59,4.19,4.19,0,0,1,.39-1.86,2.76,2.76,0,0,1,1.12-1.22,3.41,3.41,0,0,1,1.73-.42,4.28,4.28,0,0,1,1.93.44l-.4.92a6.29,6.29,0,0,0-.73-.29A2.64,2.64,0,0,0,114.64,54.19Z"/><path d="M123.4,60.14h-1.12V57.07h-3.14v3.07H118v-6.8h1.11v2.78h3.14V53.34h1.12Z"/><path d="M129.8,60.14l-.68-1.89h-2.6l-.67,1.89h-1.17l2.55-6.83h1.21L131,60.14Zm-1-2.85-.64-1.85c0-.12-.11-.32-.19-.59s-.14-.46-.17-.59a10.45,10.45,0,0,1-.37,1.25l-.61,1.77Z"/><path d="M132.27,60.14v-6.8h1.11v6.8Z"/><path d="M141.1,60.14h-1.36l-3.35-5.42h0l0,.3c0,.58.07,1.1.07,1.58v3.54h-1v-6.8h1.35l3.34,5.39h0c0-.07,0-.33,0-.78s0-.8,0-1V53.34h1Z"/><path d="M149.29,58.3a1.71,1.71,0,0,1-.66,1.42,2.85,2.85,0,0,1-1.81.52,4.32,4.32,0,0,1-1.89-.36V58.83a5.19,5.19,0,0,0,1,.34,4.21,4.21,0,0,0,1,.13,1.55,1.55,0,0,0,1-.25.82.82,0,0,0,.31-.68.85.85,0,0,0-.29-.65,4.4,4.4,0,0,0-1.19-.63,3.15,3.15,0,0,1-1.31-.86,1.82,1.82,0,0,1-.38-1.16,1.63,1.63,0,0,1,.6-1.34,2.51,2.51,0,0,1,1.62-.49,4.76,4.76,0,0,1,1.95.43l-.35.91a4.24,4.24,0,0,0-1.62-.38,1.24,1.24,0,0,0-.82.23.77.77,0,0,0-.28.62.88.88,0,0,0,.11.46,1.16,1.16,0,0,0,.37.36,6.19,6.19,0,0,0,.92.44,5.05,5.05,0,0,1,1.1.58,1.71,1.71,0,0,1,.51.61A1.84,1.84,0,0,1,149.29,58.3Z"/><path d="M156.95,56.73a3.73,3.73,0,0,1-.83,2.58,3.49,3.49,0,0,1-4.72,0,3.75,3.75,0,0,1-.83-2.6,3.69,3.69,0,0,1,.83-2.59,3.06,3.06,0,0,1,2.37-.9,3,3,0,0,1,2.35.92A3.72,3.72,0,0,1,156.95,56.73Zm-5.19,0a3.05,3.05,0,0,0,.51,1.9,2.07,2.07,0,0,0,3,0,3.87,3.87,0,0,0,0-3.81,1.77,1.77,0,0,0-1.49-.65,1.81,1.81,0,0,0-1.51.65A3,3,0,0,0,151.76,56.73Z"/><path d="M158.68,60.14v-6.8h1.11v5.85h2.88v1Z"/><path d="M169.34,53.34v4.4a2.62,2.62,0,0,1-.32,1.32,2.15,2.15,0,0,1-.94.87,3.24,3.24,0,0,1-1.46.31,2.74,2.74,0,0,1-2-.67,2.42,2.42,0,0,1-.7-1.84V53.34h1.12v4.3a1.71,1.71,0,0,0,.39,1.24,1.61,1.61,0,0,0,1.2.4q1.57,0,1.57-1.65v-4.3Z"/><path d="M173.78,60.14h-1.11V54.29h-2v-1h5.11v1h-2Z"/><path d="M177.15,60.14v-6.8h1.11v6.8Z"/><path d="M186.38,56.73a3.73,3.73,0,0,1-.83,2.58,3.49,3.49,0,0,1-4.72,0,3.75,3.75,0,0,1-.83-2.6,3.69,3.69,0,0,1,.83-2.59,3.06,3.06,0,0,1,2.37-.9,3,3,0,0,1,2.35.92A3.72,3.72,0,0,1,186.38,56.73Zm-5.19,0a3.05,3.05,0,0,0,.51,1.9,2.07,2.07,0,0,0,3,0,3.87,3.87,0,0,0,0-3.81,1.77,1.77,0,0,0-1.49-.65,1.81,1.81,0,0,0-1.51.65A3,3,0,0,0,181.19,56.73Z"/><path d="M193.78,60.14h-1.36l-3.35-5.42h0l0,.3c0,.58.07,1.1.07,1.58v3.54h-1v-6.8h1.35l3.34,5.39h0c0-.07,0-.33,0-.78s0-.8,0-1V53.34h1Z"/><path d="M199.82,58.3a1.71,1.71,0,0,1-.66,1.42,2.85,2.85,0,0,1-1.81.52,4.32,4.32,0,0,1-1.89-.36V58.83a5.19,5.19,0,0,0,1,.34,4.21,4.21,0,0,0,1,.13,1.55,1.55,0,0,0,1-.25.82.82,0,0,0,.31-.68.85.85,0,0,0-.29-.65,4.4,4.4,0,0,0-1.19-.63,3.15,3.15,0,0,1-1.31-.86,1.82,1.82,0,0,1-.38-1.16,1.63,1.63,0,0,1,.6-1.34,2.51,2.51,0,0,1,1.62-.49,4.76,4.76,0,0,1,1.95.43l-.35.91a4.24,4.24,0,0,0-1.62-.38,1.24,1.24,0,0,0-.82.23.77.77,0,0,0-.28.62.88.88,0,0,0,.11.46,1.16,1.16,0,0,0,.37.36,6.19,6.19,0,0,0,.92.44,5.05,5.05,0,0,1,1.1.58,1.71,1.71,0,0,1,.51.61A1.84,1.84,0,0,1,199.82,58.3Z"/></svg>